<svg viewBox="0 0 700 268" xmlns="http://www.w3.org/2000/svg" width="700" height="268">
  <rect width="700" height="268" fill="#fdf6e3" rx="8"/>

  <text x="14" y="26" font-family="monospace" font-size="9" fill="#93a1a1" letter-spacing="1">SOFTWARE</text>
  <line x1="14" y1="30" x2="686" y2="30" stroke="#d3c9a1" stroke-width="1"/>
  
    <rect x="14" y="34" width="44" height="40" rx="5"
      fill="#eee8d5" stroke="#d3c9a1" stroke-width="1"/>
    <text x="36" y="58" text-anchor="middle"
      font-family="monospace" font-size="12" fill="#007ACC" font-weight="700">VS</text>
    <text x="36" y="84" text-anchor="middle"
      font-family="monospace" font-size="7" fill="#93a1a1">VS Code</text>
    <rect x="62" y="34" width="44" height="40" rx="5"
      fill="#eee8d5" stroke="#d3c9a1" stroke-width="1"/>
    <text x="84" y="58" text-anchor="middle"
      font-family="monospace" font-size="12" fill="#F26207" font-weight="700">Re</text>
    <text x="84" y="84" text-anchor="middle"
      font-family="monospace" font-size="7" fill="#93a1a1">Replit</text>

  <text x="14" y="106" font-family="monospace" font-size="9" fill="#93a1a1" letter-spacing="1">LANGUAGES</text>
  <line x1="14" y1="110" x2="686" y2="110" stroke="#d3c9a1" stroke-width="1"/>
  
    <rect x="14" y="114" width="44" height="40" rx="5"
      fill="#eee8d5" stroke="#d3c9a1" stroke-width="1"/>
    <text x="36" y="138" text-anchor="middle"
      font-family="monospace" font-size="12" fill="#3572A5" font-weight="700">Py</text>
    <text x="36" y="164" text-anchor="middle"
      font-family="monospace" font-size="7" fill="#93a1a1">Python</text>
    <rect x="62" y="114" width="44" height="40" rx="5"
      fill="#eee8d5" stroke="#d3c9a1" stroke-width="1"/>
    <text x="84" y="138" text-anchor="middle"
      font-family="monospace" font-size="12" fill="#F7DF1E" font-weight="700">Ja</text>
    <text x="84" y="164" text-anchor="middle"
      font-family="monospace" font-size="7" fill="#93a1a1">JavaScri</text>
    <rect x="110" y="114" width="44" height="40" rx="5"
      fill="#eee8d5" stroke="#d3c9a1" stroke-width="1"/>
    <text x="132" y="138" text-anchor="middle"
      font-family="monospace" font-size="12" fill="#3178c6" font-weight="700">Ty</text>
    <text x="132" y="164" text-anchor="middle"
      font-family="monospace" font-size="7" fill="#93a1a1">TypeScri</text>

  <text x="14" y="186" font-family="monospace" font-size="9" fill="#93a1a1" letter-spacing="1">OS</text>
  <line x1="14" y1="190" x2="686" y2="190" stroke="#d3c9a1" stroke-width="1"/>
  
    <rect x="14" y="194" width="44" height="40" rx="5"
      fill="#eee8d5" stroke="#d3c9a1" stroke-width="1"/>
    <text x="36" y="218" text-anchor="middle"
      font-family="monospace" font-size="12" fill="#0078D4" font-weight="700">Wi</text>
    <text x="36" y="244" text-anchor="middle"
      font-family="monospace" font-size="7" fill="#93a1a1">Windows</text>
</svg>