<svg viewBox="0 0 500 172" xmlns="http://www.w3.org/2000/svg" width="500" height="172">
  <rect width="500" height="172" fill="#0a0a0a" rx="8"/>
  
  <text x="14" y="24" font-family="monospace" font-size="8" fill="#00aa2a" letter-spacing="1">SOFTWARE</text>
  <line x1="14" y1="28" x2="486" y2="28" stroke="#00ff4133" stroke-width="1"/>
  
    <rect x="14" y="32" width="56" height="20" rx="3"
      fill="#111111" stroke="#00ff4133" stroke-width="1"/>
    <text x="42" y="45" text-anchor="middle"
      font-family="monospace" font-size="9" fill="#007ACC">VS Code</text>
    <rect x="74" y="32" width="56" height="20" rx="3"
      fill="#111111" stroke="#00ff4133" stroke-width="1"/>
    <text x="102" y="45" text-anchor="middle"
      font-family="monospace" font-size="9" fill="#F26207">Replit</text>
  <text x="14" y="72" font-family="monospace" font-size="8" fill="#00aa2a" letter-spacing="1">LANGUAGES</text>
  <line x1="14" y1="76" x2="486" y2="76" stroke="#00ff4133" stroke-width="1"/>
  
    <rect x="14" y="80" width="56" height="20" rx="3"
      fill="#111111" stroke="#00ff4133" stroke-width="1"/>
    <text x="42" y="93" text-anchor="middle"
      font-family="monospace" font-size="9" fill="#3572A5">Python</text>
    <rect x="74" y="80" width="56" height="20" rx="3"
      fill="#111111" stroke="#00ff4133" stroke-width="1"/>
    <text x="102" y="93" text-anchor="middle"
      font-family="monospace" font-size="9" fill="#F7DF1E">JavaScri</text>
    <rect x="134" y="80" width="56" height="20" rx="3"
      fill="#111111" stroke="#00ff4133" stroke-width="1"/>
    <text x="162" y="93" text-anchor="middle"
      font-family="monospace" font-size="9" fill="#3178c6">TypeScri</text>
  <text x="14" y="120" font-family="monospace" font-size="8" fill="#00aa2a" letter-spacing="1">OS</text>
  <line x1="14" y1="124" x2="486" y2="124" stroke="#00ff4133" stroke-width="1"/>
  
    <rect x="14" y="128" width="56" height="20" rx="3"
      fill="#111111" stroke="#00ff4133" stroke-width="1"/>
    <text x="42" y="141" text-anchor="middle"
      font-family="monospace" font-size="9" fill="#0078D4">Windows</text>
</svg>